<svg width="24" height="24" viewBox="0 0 24 24" fill="none" xmlns="http://www.w3.org/2000/svg">
<path d="M12 3C12.2652 3 12.5196 3.10536 12.7071 3.29289C12.8946 3.48043 13 3.73478 13 4V13.586L15.293 11.293C15.4816 11.1108 15.7342 11.01 15.9964 11.0123C16.2586 11.0146 16.5094 11.1198 16.6948 11.3052C16.8802 11.4906 16.9854 11.7414 16.9877 12.0036C16.9899 12.2658 16.8891 12.5184 16.707 12.707L12.707 16.707C12.5195 16.8945 12.2652 16.9998 12 16.9998C11.7348 16.9998 11.4805 16.8945 11.293 16.707L7.29299 12.707C7.19748 12.6148 7.1213 12.5044 7.06889 12.3824C7.01648 12.2604 6.98889 12.1292 6.98774 11.9964C6.98659 11.8636 7.01189 11.7319 7.06217 11.609C7.11245 11.4861 7.1867 11.3745 7.28059 11.2806C7.37449 11.1867 7.48614 11.1125 7.60904 11.0622C7.73193 11.0119 7.86361 10.9866 7.99639 10.9877C8.12917 10.9889 8.26039 11.0165 8.38239 11.0689C8.5044 11.1213 8.61474 11.1975 8.70699 11.293L11 13.586V4C11 3.73478 11.1053 3.48043 11.2929 3.29289C11.4804 3.10536 11.7348 3 12 3Z" fill="#686868"/>
<path d="M6 17C6 16.7348 5.89464 16.4804 5.70711 16.2929C5.51957 16.1054 5.26522 16 5 16C4.73478 16 4.48043 16.1054 4.29289 16.2929C4.10536 16.4804 4 16.7348 4 17V17.6C4 19.482 5.518 21 7.4 21H16.6C18.482 21 20 19.482 20 17.6V17C20 16.7348 19.8946 16.4804 19.7071 16.2929C19.5196 16.1054 19.2652 16 19 16C18.7348 16 18.4804 16.1054 18.2929 16.2929C18.1054 16.4804 18 16.7348 18 17V17.6C18 18.378 17.378 19 16.6 19H7.4C6.622 19 6 18.378 6 17.6V17Z" fill="#686868"/>
</svg>
