<svg width="24" height="24" viewBox="0 0 24 24" fill="none" xmlns="http://www.w3.org/2000/svg">
<path d="M12 5H5.77778C5.30628 5 4.8541 5.1873 4.5207 5.5207C4.1873 5.8541 4 6.30628 4 6.77778V19.2222C4 19.6937 4.1873 20.1459 4.5207 20.4793C4.8541 20.8127 5.30628 21 5.77778 21H18.2222C18.6937 21 19.1459 20.8127 19.4793 20.4793C19.8127 20.1459 20 19.6937 20 19.2222V13" stroke="#686868" stroke-width="2" stroke-linecap="round" stroke-linejoin="round"/>
<path d="M19.1547 3.48817C19.4673 3.1756 19.8912 3 20.3333 3C20.7753 3 21.1993 3.1756 21.5118 3.48817C21.8244 3.80074 22 4.22467 22 4.66671C22 5.10875 21.8244 5.53269 21.5118 5.84526L14.4304 12.9275C14.2438 13.1139 14.0133 13.2504 13.7602 13.3243L11.5028 13.9843C11.4352 14.004 11.3636 14.0052 11.2954 13.9877C11.2271 13.9702 11.1649 13.9347 11.1151 13.8849C11.0653 13.8351 11.0298 13.7729 11.0123 13.7047C10.9948 13.6364 10.996 13.5648 11.0157 13.4972L11.6757 11.2399C11.75 10.9869 11.8867 10.7567 12.0733 10.5704L19.1547 3.48817Z" stroke="#686868" stroke-width="2" stroke-linecap="round" stroke-linejoin="round"/>
</svg>
