<svg width="24" height="24" viewBox="0 0 24 24" fill="none" xmlns="http://www.w3.org/2000/svg">
<path d="M19.33 6.694L19.75 5.317C19.7884 5.19139 19.8512 5.07457 19.9347 4.97322C20.0183 4.87188 20.121 4.78798 20.237 4.72632C20.353 4.66466 20.48 4.62645 20.6107 4.61387C20.7414 4.60129 20.8734 4.61458 20.999 4.653C21.1246 4.69141 21.2414 4.75418 21.3428 4.83774C21.4441 4.9213 21.528 5.024 21.5897 5.13998C21.6513 5.25596 21.6895 5.38295 21.7021 5.51369C21.7147 5.64444 21.7014 5.77639 21.663 5.902L20.493 9.727C20.4155 9.98048 20.2405 10.1928 20.0064 10.3173C19.7724 10.4418 19.4986 10.4683 19.245 10.391L15.42 9.221C15.2918 9.1849 15.172 9.12355 15.0678 9.04054C14.9637 8.95753 14.8771 8.85453 14.8133 8.73761C14.7494 8.62068 14.7096 8.49218 14.6961 8.35964C14.6826 8.22711 14.6957 8.09322 14.7347 7.96583C14.7737 7.83844 14.8377 7.72012 14.9231 7.61783C15.0084 7.51553 15.1133 7.43131 15.2317 7.37012C15.35 7.30894 15.4794 7.27201 15.6122 7.26151C15.745 7.25101 15.8785 7.26716 16.005 7.309L17.677 7.82C16.9379 6.69889 15.9069 5.80067 14.6951 5.22208C13.4833 4.64348 12.1366 4.40644 10.8001 4.53647C9.46353 4.6665 8.1878 5.15868 7.11026 5.96001C6.03271 6.76134 5.19419 7.84144 4.68501 9.084L4.42501 9.717C4.37772 9.84195 4.30587 9.95616 4.21371 10.0529C4.12155 10.1496 4.01094 10.2269 3.88842 10.2802C3.76589 10.3334 3.63394 10.3616 3.50034 10.363C3.36675 10.3644 3.23422 10.3391 3.11059 10.2884C2.98697 10.2378 2.87474 10.1628 2.78055 10.0681C2.68636 9.97334 2.61211 9.86068 2.56218 9.73676C2.51225 9.61283 2.48767 9.48016 2.48987 9.34658C2.49207 9.21299 2.52102 9.08121 2.57501 8.959L2.83501 8.326C3.48124 6.74927 4.54473 5.37835 5.91128 4.36042C7.27784 3.34249 8.89586 2.716 10.5916 2.54822C12.2873 2.38045 13.9967 2.67772 15.5363 3.40813C17.0758 4.13853 18.3873 5.27448 19.33 6.694ZM3.80801 17.307L3.48101 18.618C3.45175 18.748 3.3968 18.8709 3.31938 18.9794C3.24196 19.0878 3.14365 19.1797 3.0302 19.2497C2.91676 19.3196 2.79048 19.3662 2.65879 19.3866C2.52709 19.4071 2.39264 19.401 2.26334 19.3687C2.13403 19.3365 2.01248 19.2787 1.90582 19.1988C1.79916 19.1189 1.70955 19.0184 1.64225 18.9034C1.57496 18.7884 1.53134 18.6611 1.51395 18.5289C1.49656 18.3968 1.50576 18.2625 1.54101 18.134L2.50801 14.254C2.54063 14.1219 2.59987 13.9978 2.68211 13.8894C2.76434 13.781 2.86784 13.6905 2.98626 13.6235C3.10468 13.5565 3.23554 13.5143 3.37082 13.4996C3.5061 13.4849 3.64295 13.498 3.77301 13.538L7.601 14.492C7.8584 14.5562 8.07975 14.72 8.21637 14.9474C8.35299 15.1748 8.39369 15.4471 8.32951 15.7045C8.26532 15.9619 8.10152 16.1832 7.87413 16.3199C7.64674 16.4565 7.3744 16.4972 7.11701 16.433L5.33101 15.988C6.09452 17.1568 7.17376 18.0853 8.44355 18.6656C9.71333 19.246 11.1216 19.4544 12.5051 19.2668C13.8885 19.0792 15.1905 18.5033 16.2599 17.6058C17.3293 16.7083 18.1223 15.526 18.547 14.196C18.6276 13.9432 18.8054 13.7329 19.0411 13.6112C19.1578 13.5509 19.2853 13.5142 19.4162 13.5032C19.5471 13.4922 19.6789 13.5071 19.804 13.547C19.9292 13.5869 20.0452 13.6511 20.1456 13.7359C20.2459 13.8207 20.3286 13.9244 20.3888 14.0411C20.4491 14.1578 20.4858 14.2853 20.4968 14.4162C20.5078 14.5471 20.4929 14.6788 20.453 14.804C20.0368 16.11 19.3393 17.3089 18.4098 18.3163C17.4803 19.3237 16.3413 20.1152 15.073 20.635C13.0968 21.4446 10.9036 21.556 8.85556 20.951C6.80748 20.3459 5.02697 19.0605 3.80801 17.307Z" fill="#686868"/>
</svg>
